PathFileType	4	(X/Y/Z)	c:/Users/goper/Files/vsCode/490R/osim_files/C04/C04_SSWS_06.trc
DataRate	CameraRate	NumFrames	NumMarkers	Units                	OrigDataRate	OrigDataStartFrame	OrigNumFrames
250.00	250.00	10	36	mm	250.0	1682	3362
                Frame#	Time	LPSIS			LASIS			LTH1			LTH2			LTH3			LTH4			LLFE			LMFE			LSH1			LSH2			LSH3			LSH4			LLMAL			LMMAL			LCAL			LMTP5			LTOE			LMTP1			RPSIS			RASIS			RTH1			RTH2			RTH3			RTH4			RLFE			RMFE			RSH1			RSH2			RSH3			RSH4			RLMAL			RMMAL			RCAL			RMTP1			RTOE			RMTP5		
		X1	Y1	Z1	X2	Y2	Z2	X3	Y3	Z3	X4	Y4	Z4	X5	Y5	Z5	X6	Y6	Z6	X7	Y7	Z7	X8	Y8	Z8	X9	Y9	Z9	X10	Y10	Z10	X11	Y11	Z11	X12	Y12	Z12	X13	Y13	Z13	X14	Y14	Z14	X15	Y15	Z15	X16	Y16	Z16	X17	Y17	Z17	X18	Y18	Z18	X19	Y19	Z19	X20	Y20	Z20	X21	Y21	Z21	X22	Y22	Z22	X23	Y23	Z23	X24	Y24	Z24	X25	Y25	Z25	X26	Y26	Z26	X27	Y27	Z27	X28	Y28	Z28	X29	Y29	Z29	X30	Y30	Z30	X31	Y31	Z31	X32	Y32	Z32	X33	Y33	Z33	X34	Y34	Z34	X35	Y35	Z35	X36	Y36	Z36

1682	6.72400	825.58496	974.55249	299.44034	654.21930	958.67053	367.39990	0.00000	0.00000	0.00000	720.74713	650.70453	422.72235	642.95050	652.34094	380.24741	0.00000	0.00000	0.00000	653.65485	459.93573	377.73349	666.00104	454.07095	262.36078	705.13287	355.46875	386.94556	714.34698	308.14783	381.65326	651.67151	350.64709	380.72455	653.39606	303.43246	374.83896	699.46509	77.13361	345.78564	700.17737	100.35846	252.52173	767.49292	50.70684	299.98398	565.30499	27.92393	342.17249	547.27618	54.43731	286.41187	580.10107	24.35435	236.55376	827.94653	969.39777	224.36050	664.15552	934.84863	154.23877	762.49774	699.76624	96.05293	749.41058	639.20856	105.37894	700.97729	718.50916	88.74488	0.00000	0.00000	0.00000	658.20483	440.98462	120.42160	651.29974	434.94302	236.76427	786.18677	404.20993	110.05762	819.88483	373.87875	115.58099	0.00000	0.00000	0.00000	789.14258	329.45517	113.62350	990.11377	243.25174	142.68710	966.33533	236.28413	230.35550	1038.79529	282.17130	197.74774	962.51202	99.45078	225.20337	937.52850	82.67781	179.65701	984.74255	98.48836	123.40273
1683	6.72800	821.13068	974.97473	299.60510	650.07837	959.15692	367.69489	0.00000	0.00000	0.00000	717.85822	651.03979	422.89636	639.63519	652.52814	380.46829	0.00000	0.00000	0.00000	652.13953	459.71451	378.13104	661.34064	452.77295	262.62012	703.86438	355.41565	387.16788	713.24664	308.13446	381.85532	650.46808	350.48624	380.94977	652.28876	303.20038	375.06207	699.26379	77.03780	345.80731	699.15686	97.78997	256.29230	767.38196	50.75515	300.05936	565.21289	27.76904	342.25009	547.19153	54.28680	286.48190	580.08752	24.32787	236.54645	823.73969	969.89282	224.54904	659.50299	935.66797	155.40225	756.81189	700.07501	96.04456	743.05756	639.65240	105.49108	695.26715	719.36700	88.82011	0.00000	0.00000	0.00000	649.34583	442.54871	120.56220	643.65845	436.90839	236.34506	777.12848	405.09775	110.79537	810.55481	374.50485	116.34637	0.00000	0.00000	0.00000	779.65436	330.36133	113.95715	979.41827	242.27773	143.33218	954.90784	234.58470	230.48260	1028.86902	280.00085	198.81351	948.59705	98.37447	224.63177	923.98486	82.30843	179.14279	971.72235	97.99394	123.02419
1684	6.73200	816.81927	975.34320	299.66507	646.06360	959.60547	367.90677	0.00000	0.00000	0.00000	714.97717	651.37958	423.00040	636.60834	652.81854	380.76407	0.00000	0.00000	0.00000	650.77942	459.54782	378.55792	0.00000	0.00000	0.00000	702.10376	355.08734	387.14554	712.27661	308.20761	382.00015	649.26868	350.26169	381.13699	651.32141	302.95395	375.16177	699.11438	76.95078	345.83246	699.04883	97.87977	256.35110	767.29730	50.82887	300.10205	565.18842	27.62251	342.30072	547.10699	54.13456	286.54349	580.03967	24.25662	236.55437	819.63623	970.41443	224.63350	655.74139	936.13568	154.79495	751.15894	700.40698	96.04179	736.60608	640.09998	105.55234	689.72656	720.38312	88.79659	0.00000	0.00000	0.00000	640.60168	444.22562	120.73232	0.00000	0.00000	0.00000	768.12671	406.08636	111.43745	801.24268	375.02896	117.00638	729.75989	356.14578	110.57806	770.04858	331.24142	114.18886	968.76788	241.07338	143.94026	941.10596	231.28735	229.47945	1018.51337	277.39365	199.72479	935.60974	97.43597	224.44350	910.40887	81.86288	178.78259	958.86102	97.11427	122.57080
1685	6.73600	812.90680	975.93231	299.78186	642.13391	959.94104	368.03827	0.00000	0.00000	0.00000	712.01971	651.64758	423.09164	633.65027	653.29022	381.14581	0.00000	0.00000	0.00000	649.35693	459.23975	378.78497	0.00000	0.00000	0.00000	701.67670	355.51782	387.40976	711.34351	308.30206	382.07059	648.30530	350.16147	381.36185	650.44843	302.84140	375.41614	698.97028	76.90124	345.85391	698.88684	97.94289	256.43051	767.24786	50.92886	300.13663	565.16888	27.50607	342.36389	547.04254	53.99041	286.59561	579.97369	24.19754	236.61229	815.50739	970.94257	224.72943	651.11182	937.08978	155.87512	745.47083	700.79187	95.92496	730.28021	640.63934	105.59652	684.11945	721.25983	88.86818	0.00000	0.00000	0.00000	631.83636	445.82773	120.90343	679.07678	468.16293	242.59943	759.16931	406.85928	112.21463	791.93896	375.43524	117.67189	720.23431	357.23038	111.02627	760.40186	331.89163	114.51978	957.98688	239.64848	144.30278	929.23590	229.04947	229.39961	1008.36737	274.84360	200.61572	921.44318	95.89783	223.91901	895.66071	81.08189	177.19867	944.84644	95.93818	122.15129
1686	6.74000	808.78473	976.39441	299.81122	638.21466	960.55640	368.31717	0.00000	0.00000	0.00000	709.10712	651.96362	423.22147	630.71399	653.72815	381.46912	0.00000	0.00000	0.00000	648.12817	459.19086	379.10251	674.61304	463.10837	246.36543	700.05969	355.19553	387.26727	710.54199	308.42773	382.07983	647.35327	350.06302	381.55829	649.77740	302.81799	375.59143	698.87402	76.90176	345.84457	698.75360	98.01358	256.44800	767.21667	51.05920	300.12787	565.13208	27.36421	342.38034	546.95465	53.86766	286.63513	579.91785	24.15155	236.62520	811.38422	971.48138	224.77937	645.91266	937.96582	153.30370	740.21521	701.37958	95.52389	723.92267	641.19208	105.62291	678.56433	722.24707	88.79195	0.00000	0.00000	0.00000	623.15454	447.54245	121.07963	0.00000	0.00000	0.00000	750.27936	407.52457	112.87859	782.74896	375.79208	118.29800	711.04193	358.51843	111.14296	750.68945	332.58524	114.83083	947.02716	238.03963	144.92697	917.31781	226.58054	229.34038	997.92633	271.84738	201.37910	907.61224	94.62035	223.48314	881.71893	80.55222	176.71436	931.20178	94.91615	121.89307
1687	6.74400	804.57031	976.80646	299.84766	0.00000	0.00000	0.00000	0.00000	0.00000	0.00000	706.27484	652.33948	423.26437	626.14648	653.32440	380.73990	0.00000	0.00000	0.00000	646.67987	459.02307	379.34576	0.00000	0.00000	0.00000	699.18152	355.36642	387.26016	710.05005	308.65573	382.02899	646.45392	349.95871	381.71204	648.96246	302.83176	375.77100	698.76080	76.92081	345.85690	698.61072	98.08849	256.50006	767.14606	51.22269	300.13095	564.49597	27.42134	342.51685	546.88788	53.75343	286.67325	579.88947	24.13067	236.64635	807.28973	972.09424	224.82253	0.00000	0.00000	0.00000	734.25751	701.67877	95.63076	717.69623	641.84790	105.57422	672.97961	723.25403	88.79256	0.00000	0.00000	0.00000	614.54718	449.32599	121.26562	606.98663	443.49121	237.81415	741.41827	408.17471	113.58865	773.51477	376.02985	118.85001	0.00000	0.00000	0.00000	740.95428	333.09848	115.14999	935.92682	236.07750	145.27525	901.96466	222.51640	228.80991	987.40430	268.57983	201.88971	893.52783	93.01304	223.08250	867.46222	79.92596	176.08673	917.12311	93.29842	121.43527
1688	6.74800	800.64551	977.33777	299.84567	630.39093	961.44562	368.76639	715.37274	711.88824	439.62604	703.06671	652.47040	423.16321	0.00000	0.00000	0.00000	0.00000	0.00000	0.00000	645.26813	458.96112	379.51382	0.00000	0.00000	0.00000	698.31665	355.48825	387.21033	709.05518	308.78470	381.98041	645.44318	349.93073	381.81259	648.18835	302.78088	375.86234	698.59473	76.93327	345.85922	698.40790	98.09610	256.60486	767.07214	51.36107	300.12625	564.95374	27.11046	342.42725	546.74896	53.64183	286.71640	579.86731	24.10959	236.67281	803.14319	972.65332	224.85016	638.86981	939.12091	155.94643	727.24823	702.02539	96.48478	711.53546	642.49780	105.40980	667.48639	724.32806	88.67884	0.00000	0.00000	0.00000	606.09399	451.10504	121.40510	0.00000	0.00000	0.00000	732.70056	408.73941	114.22122	764.36182	376.16693	119.40204	0.00000	0.00000	0.00000	731.28766	333.68680	115.47132	924.72430	233.99217	145.66652	889.40546	219.65082	228.58914	977.03131	265.33069	202.46620	879.46552	91.76438	222.86685	852.82776	78.80516	175.51302	903.04517	91.96098	121.23718
1689	6.75200	796.52100	977.81641	299.87286	626.45099	962.10724	369.03226	712.29779	712.35925	439.66681	700.31012	652.86383	423.23923	0.00000	0.00000	0.00000	0.00000	0.00000	0.00000	644.00049	458.98026	379.65125	0.00000	0.00000	0.00000	698.05499	356.04117	387.34714	708.34808	308.96280	381.90289	644.64264	349.96884	381.95084	647.49603	302.76361	375.96335	698.41089	76.95523	345.81451	698.23950	98.18496	256.66647	766.97437	51.52288	300.12521	564.83325	26.95392	342.43408	546.64087	53.54604	286.76050	579.81262	24.09076	236.70433	799.05243	973.22095	224.86209	634.29553	939.97742	157.07237	721.58240	702.55402	96.37982	705.17090	643.09436	105.42851	662.00281	725.39453	88.59544	0.00000	0.00000	0.00000	597.62836	452.88928	121.60978	590.23792	447.37534	238.06717	724.03156	409.25241	114.85337	755.29413	376.29346	119.87729	683.03253	361.64029	112.19308	721.69366	334.22870	115.69497	913.46857	231.73216	145.93100	876.66431	216.60518	228.38150	966.29193	261.69669	202.86919	866.69287	90.96328	223.25655	838.29279	78.45315	175.19113	888.74878	90.32577	120.92567
1690	6.75600	792.31592	978.24365	299.89474	620.27216	961.96356	365.97769	709.19061	712.72546	439.70322	697.58014	653.20770	423.27081	0.00000	0.00000	0.00000	0.00000	0.00000	0.00000	642.48566	458.91852	379.74939	0.00000	0.00000	0.00000	697.29413	356.22733	387.31479	707.76306	309.20404	381.77878	643.83154	349.91632	382.05829	646.77716	302.79660	376.16861	698.23602	76.94958	345.79486	698.06970	98.24493	256.70789	766.93884	51.73106	300.12280	564.73737	26.77173	342.42920	546.54120	53.41749	286.80862	579.75433	24.04418	236.75951	794.99329	973.77020	224.86671	630.36719	940.53998	156.71208	715.85742	702.98981	96.22256	699.05292	643.81696	105.26609	656.50635	726.46509	88.54768	0.00000	0.00000	0.00000	589.37787	454.79587	121.82915	581.76373	449.21902	238.10037	715.46863	409.70514	115.40050	746.23865	376.23941	120.36568	673.70142	362.57681	112.59669	712.06207	334.61661	115.95524	902.11493	229.27812	146.13362	863.87311	213.43494	228.13283	955.59729	257.86743	203.17589	850.40552	88.58152	222.14674	823.48737	77.74850	174.50449	874.17444	88.54460	120.66995
1691	6.76000	788.33752	978.68494	299.89218	618.65839	962.85797	369.48352	706.20300	713.13550	439.76675	694.91754	653.53906	423.23483	0.00000	0.00000	0.00000	0.00000	0.00000	0.00000	641.12415	458.90552	379.85825	648.74683	451.72992	264.08438	695.88385	355.99896	387.03622	707.15918	309.45139	381.72693	642.96014	349.88400	382.23642	0.00000	0.00000	0.00000	698.13062	76.97251	345.75409	697.89783	98.41365	256.55231	766.93689	51.92227	300.14322	564.70795	26.63325	342.45056	546.45288	53.25718	286.88010	579.72565	24.03225	236.75713	790.91541	974.30865	224.86705	626.17657	941.27893	157.28688	710.29034	703.64246	96.12240	693.19403	644.71527	105.02434	651.07971	727.56360	88.46334	0.00000	0.00000	0.00000	581.14502	456.63248	122.04617	573.28186	451.10410	238.17978	707.01251	410.05634	115.95428	737.19501	376.11737	120.84940	0.00000	0.00000	0.00000	702.50342	335.05115	116.09813	890.64044	226.65367	146.29926	863.63501	219.28720	233.87042	944.92322	253.72617	203.48663	835.80487	86.90794	221.89561	808.44788	76.87770	174.23050	859.37469	86.64245	120.34615
